<svg xmlns="http://www.w3.org/2000/svg" width="19" height="37"><path fill="#DEDEDE" d="M17.5 19.3c.6 0 1 .4 1 1v15.3c0 .5-.4 1-1 1h-16c-.6 0-1-.5-1-1V20.2c0-.5.4-1 1-1h16m0-.4h-16c-.8 0-1.5.6-1.5 1.4v15.4c0 .8.7 1.4 1.5 1.4h16c.8 0 1.5-.6 1.5-1.4V20.2c0-.8-.7-1.4-1.5-1.4zM17.5.5c.6 0 1 .4 1 1v15.3c0 .5-.4 1-1 1h-16c-.6 0-1-.5-1-1V1.4c0-.5.4-1 1-1h16m0-.4h-16C.7 0 0 .6 0 1.4v15.4c0 .8.7 1.4 1.5 1.4h16c.8 0 1.5-.6 1.5-1.4V1.4c0-.8-.7-1.4-1.5-1.4z"/><path fill="#3B8BDD" d="M17 21.5c-4.8 2.8-8.3 6.2-10 8l-3.8-2.8L1.5 28l6.7 6.3c1.2-2.8 4.8-8 9.3-12l-.4-.8z"/></svg>