<?xml version="1.0" encoding="UTF-8"?>
<svg width="91px" height="91px" viewBox="0 0 91 91" version="1.1" xmlns="http://www.w3.org/2000/svg" xmlns:xlink="http://www.w3.org/1999/xlink">
    <!-- Generator: Sketch 49.1 (51147) - http://www.bohemiancoding.com/sketch -->
    <title>dq</title>
    <desc>Created with Sketch.</desc>
    <defs>
        <linearGradient x1="50%" y1="-9.1281467%" x2="50%" y2="100%" id="linearGradient-1">
            <stop stop-color="#9CDCFF" offset="0%"></stop>
            <stop stop-color="#5BB0FB" offset="100%"></stop>
        </linearGradient>
    </defs>
    <g id="Page-1" stroke="none" stroke-width="1" fill="none" fill-rule="evenodd">
        <g id="0.0_首页改版_v1" transform="translate(-230.000000, -162.000000)">
            <g id="dq" transform="translate(230.000000, 162.000000)">
                <g id="Group-13">
                    <g id="Group-12">
                        <circle id="Oval" fill="#DBF2FC" cx="45.5" cy="45.5" r="45.5"></circle>
                        <g id="Group-9" transform="translate(17.000000, 5.000000)">
                            <g id="Group-5">
                                <g id="Group-2">
                                    <rect id="Rectangle-4" fill="#84C1FB" x="0" y="0" width="58" height="8" rx="2"></rect>
                                    <rect id="Rectangle-5" fill="url(#linearGradient-1)" x="2.63636364" y="4" width="52.7272727" height="72"></rect>
                                </g>
                            </g>
                        </g>
                    </g>
                </g>
                <g id="Group-5" transform="translate(29.000000, 21.000000)">
                    <g id="Group-19">
                        <path d="M12.508623,13.220897 C11.8454973,12.3477183 10.8430258,12.0558579 10.004385,12.1917784 C9.94167842,12.2019414 9.89955658,12.210346 9.87096774,12.2169589 L9.87096774,12.7741935 C9.87096774,16.6223712 10.3779297,14.6132812 12.3994141,14.815918 L12.5533078,13.2806889 C12.5389973,13.261216 12.5241102,13.24129 12.508623,13.220897 Z M12.5533078,13.2806889 L12.6986391,11.8308779 C11.7596048,11.7367476 10.981238,11.857454 10.1471348,12.1231742 C10.0784678,12.1450495 9.94215869,12.1903728 9.87096774,12.214046 L9.87096774,6.96774194 C9.87096774,3.11956432 13.5104595,0 18,0 C22.4895405,0 26.1290323,3.11956432 26.1290323,6.96774194 L26.1290323,7.58108054 L23.1290323,7.58108054 L23.1290323,6.96774194 C23.1290323,4.88787544 20.9265109,3 18,3 C15.0734891,3 12.8709677,4.88787544 12.8709677,6.96774194 L12.8709677,12.7741935 C12.8709677,13.3878116 12.8851785,13.791859 12.9093335,14.0129652 C12.8942889,13.8752527 12.8373983,13.6672616 12.5533078,13.2806889 Z M12.508623,13.220897 C11.8454973,12.3477183 10.8430258,12.0558579 10.004385,12.1917784 C9.94167842,12.2019414 9.89955658,12.210346 9.87096774,12.2169589 L9.87096774,12.7741935 C9.87096774,16.6223712 10.3779297,14.6132812 12.3994141,14.815918 L12.5533078,13.2806889 C12.5389973,13.261216 12.5241102,13.24129 12.508623,13.220897 Z M12.5533078,13.2806889 L12.5533078,14.0129652 C11.6142735,13.9188349 10.705071,13.747245 9.87096774,14.0129652 C9.80230082,14.0348404 9.94215869,12.1903728 9.87096774,12.214046 L9.87096774,6.96774194 C9.87096774,3.11956432 13.5104595,0 18,0 C22.4895405,0 26.1290323,3.11956432 26.1290323,6.96774194 L26.1290323,7.58108054 L23.1290323,7.58108054 L23.1290323,6.96774194 C23.1290323,4.88787544 20.9265109,3 18,3 C15.0734891,3 12.8709677,4.88787544 12.8709677,6.96774194 L12.8709677,12.7741935 C12.8709677,13.3878116 12.8851785,13.791859 12.9093335,14.0129652 C12.8942889,13.8752527 12.8373983,13.6672616 12.5533078,13.2806889 Z" id="Rectangle-13" fill="#FFFFFF" fill-rule="nonzero"></path>
                        <rect id="Rectangle-12" stroke="#FFFFFF" stroke-width="3" x="1.5" y="14.2741935" width="33" height="21.2258065" rx="3"></rect>
                    </g>
                    <g id="Group-20" transform="translate(15.000000, 20.000000)" fill="#FFFFFF">
                        <g id="Group-16">
                            <ellipse id="Oval-3" cx="3" cy="2.5" rx="3" ry="2.5"></ellipse>
                            <rect id="Rectangle-14" x="2" y="3" width="2" height="5"></rect>
                        </g>
                    </g>
                </g>
            </g>
        </g>
    </g>
</svg>