<?xml version="1.0" encoding="UTF-8"?>
<svg width="91px" height="91px" viewBox="0 0 91 91" version="1.1" xmlns="http://www.w3.org/2000/svg" xmlns:xlink="http://www.w3.org/1999/xlink">
    <!-- Generator: Sketch 49.1 (51147) - http://www.bohemiancoding.com/sketch -->
    <title>hq</title>
    <desc>Created with Sketch.</desc>
    <defs>
        <linearGradient x1="50%" y1="-9.1281467%" x2="50%" y2="100%" id="linearGradient-1">
            <stop stop-color="#FDD36C" offset="0%"></stop>
            <stop stop-color="#FEB641" offset="100%"></stop>
        </linearGradient>
    </defs>
    <g id="Page-1" stroke="none" stroke-width="1" fill="none" fill-rule="evenodd">
        <g id="0.0_首页改版_v1" transform="translate(-417.000000, -162.000000)">
            <g id="hq" transform="translate(417.000000, 162.000000)">
                <g id="Group-17">
                    <g id="Group-13">
                        <g id="Group-12">
                            <circle id="Oval" fill="#FFF2D7" cx="45.5" cy="45.5" r="45.5"></circle>
                            <g id="Group-9" transform="translate(17.000000, 5.000000)">
                                <g id="Group-5">
                                    <g id="Group-2">
                                        <rect id="Rectangle-4" fill="#FFC058" x="0" y="0" width="58" height="8" rx="2"></rect>
                                        <rect id="Rectangle-5" fill="url(#linearGradient-1)" x="2.63636364" y="4" width="52.7272727" height="72"></rect>
                                    </g>
                                </g>
                            </g>
                        </g>
                    </g>
                </g>
                <g id="lc_nor" transform="translate(25.000000, 19.000000)" stroke="#FFFFFF">
                    <g id="Group-18">
                        <path d="M37,9 C37,7.00730158 35.9476268,5.2414908 34.3279161,4.15029302 C33.254169,3.42691046 31.9310943,3 30.5,3 C26.9101491,3 24,5.6862915 24,9" id="Oval-2" stroke-width="3" transform="translate(30.500000, 6.000000) rotate(-338.000000) translate(-30.500000, -6.000000) "></path>
                        <g id="Group-3" transform="translate(0.000000, 5.000000)">
                            <g id="Group-26">
                                <path d="M9.83479946,0 C9.19967385,0 8.55329285,0.0308707457 7.91655933,0.0894460069 C7.11340682,0.161477747 6.40512117,0.612665569 6.02082998,1.29577976 C5.64859814,1.95910502 5.63332296,2.75778662 5.98304403,3.43773458 L7.31198407,5.99842336 C5.77160348,7.40502119 4.56486482,9.0395876 3.77216374,10.7936792 L2.41347731,10.7889299 C1.08292936,10.7889299 0,11.8306196 0,13.1113598 L0,17.5622881 C0,18.4377508 0.503276748,19.2300999 1.31768465,19.6314196 L3.6676494,20.7839275 C4.86634849,23.5907906 7.11340682,26.0794477 10.0711627,27.8786581 L10.0711627,31.183411 C10.0711627,32.5741777 11.2513708,33.7068966 12.7025122,33.7068966 L16.5397964,33.7068966 C17.5744884,33.7068966 18.5175293,33.1211439 18.9460381,32.208478 L19.5707123,30.8596639 C20.1752875,30.9079489 20.7895103,30.9316957 21.4061449,30.9316957 C22.34597,30.9316957 23.2922268,30.8762866 24.2207965,30.764677 L24.2207965,31.183411 C24.2207965,32.5741777 25.4010046,33.7068966 26.8529499,33.7068966 L30.6733511,33.7068966 C31.6372949,33.7068966 32.5232549,33.2026744 32.9855299,32.3897447 C33.3931358,31.6694273 33.8087813,30.9491099 34.2244268,30.2272094 C35.8765573,27.3578132 37.5849648,24.3910554 38.9139049,21.3301022 C39.7886095,19.314005 40.1455662,17.0889367 39.946185,14.894739 C39.6221905,11.3453948 37.9210186,8.07705358 35.1586242,5.69129902 C34.1705617,4.83720839 33.0611018,4.07731311 31.87607,3.44090081 C29.0372997,1.86253499 25.0665587,0.920581469 21.2550011,0.920581469 C19.6390486,0.920581469 18.0496266,1.08205922 16.5237173,1.40184848 C14.6504987,0.470976762 12.4034404,0 9.83479946,0 M10.0515332,1.98275862 C12.3152155,1.98275862 14.2783324,2.38667959 15.888167,3.18295891 C16.1100503,3.2924184 16.352391,3.347919 16.597879,3.347919 C16.707247,3.347919 16.8166151,3.33712721 16.9251963,3.31477281 C18.3100002,3.02570723 19.7577497,2.87924734 21.2283171,2.87924734 C24.6997687,2.87924734 28.2963248,3.72254799 30.8692275,5.14552148 C31.9330087,5.7136317 32.9181078,6.38580552 33.7977731,7.14277192 C36.1967885,9.20477305 37.6728636,12.0252823 37.9537584,15.0832107 C38.1252853,16.9679182 37.8176385,18.8780636 37.0638646,20.6070612 C35.7978705,23.5077379 34.1479081,26.3583099 32.5522364,29.1171518 L32.3799227,29.4139258 C32.0290008,30.021349 31.6780789,30.6272304 31.335812,31.2300285 C31.1619247,31.5345109 30.8204446,31.7241379 30.4459181,31.7241379 L26.7069476,31.7241379 C26.1538128,31.7241379 25.7045384,31.3132794 25.7045384,30.8083782 L25.7045384,30.400603 C25.7045384,29.9589108 25.5109805,29.5388022 25.1742214,29.2458824 C24.8846715,28.9953589 24.5132923,28.8589199 24.1308976,28.8589199 C24.0671651,28.8589199 24.0034326,28.8620033 23.9397002,28.8697117 C23.099376,28.9706919 22.2370208,29.0215675 21.3762393,29.0215675 C20.8160232,29.0215675 20.2534466,28.9999839 19.7058196,28.9568168 C19.6633313,28.9529626 19.620843,28.9514209 19.5791415,28.9514209 C18.9669952,28.9514209 18.4052055,29.301383 18.1479152,29.8533055 L17.539703,31.1598819 C17.3784048,31.5029064 17.0148938,31.7241379 16.6136154,31.7241379 L12.8581216,31.7241379 C12.3057737,31.7241379 11.8564992,31.3132794 11.8564992,30.8083782 L11.8564992,27.5901147 C11.8564992,27.0559215 11.5740307,26.5594996 11.1098067,26.2789133 C8.50936522,24.7048548 6.50533364,22.5048731 5.46673071,20.0836598 C5.32038211,19.7429478 5.05443681,19.4654448 4.71767768,19.3012556 L2.4201621,18.1796812 C2.15736408,18.0509506 2,17.8127606 2,17.5437369 L2,13.2092949 C2,12.8123115 2.35328236,12.4893289 2.7828863,12.4893289 L4.11261279,12.4939539 L4.11812053,12.4939539 C4.73970865,12.4939539 5.30307206,12.1355126 5.55564141,11.578965 C6.24017517,10.0727406 7.31103774,8.63126694 8.65256653,7.41256646 C9.16872072,6.94312396 9.30405383,6.19463682 8.98381792,5.58027611 L7.68556425,3.09277044 C7.58013032,2.88849744 7.58406442,2.64722403 7.69579292,2.44911776 C7.8185369,2.23174044 8.05143574,2.08759307 8.32131514,2.06292614 C8.90120178,2.00973807 9.48266206,1.98275862 10.0515332,1.98275862" id="Fill-1" fill="#FFFFFF"></path>
                                <path d="M16.744186,14.0445402 C16.744186,12.4932232 15.4947481,11.2356322 13.9534884,11.2356322 C12.4122286,11.2356322 11.1627907,12.4932232 11.1627907,14.0445402" id="Oval-5" stroke-width="2" stroke-linecap="round" stroke-linejoin="round" transform="translate(13.953488, 12.640086) rotate(-8.000000) translate(-13.953488, -12.640086) "></path>
                            </g>
                        </g>
                    </g>
                </g>
            </g>
        </g>
    </g>
</svg>