<svg width="52" height="52" xmlns="http://www.w3.org/2000/svg"><g fill="none" fill-rule="evenodd"><path d="M32 3.4c-7.7-.6-15 3.8-18 11.2 0 .8-.3 1.5-.5 2.2C12 22.8 14 28.6 18 31c1.4 1 3 1.5 5 1.5 4.4 0 8-2.7 9.3-6.5.3-.7.8-1.2 1.4-1.2.8 0 1.4.8 1.7 2 .4 1.2.6 2.6.6 4 0 8.8-8 16-17.7 16C8.3 46.7 0 37.2 0 25.3 0 11.4 11.6 0 26 0c2 0 4.2.3 6.2.8 1 .2 1.4.8 1.3 1.5 0 .7-.8 1-1.6 1" fill="#D71820"/><path d="M20 48.5c7.6.6 15-3.8 17.7-11.2.3-.7.5-1.4.6-2.2 1.5-6-.3-11.7-4.3-14-1.5-1-3.3-1.6-5.2-1.6-4.3 0-8 2.8-9.2 6.6-.4.6-1 1-1.4 1-.8 0-1.4-.7-1.7-1.8-.4-1.3-.6-2.7-.6-4 0-9 7.8-16 17.5-16C43.7 5.2 52 14.6 52 26.5 52 40.5 40.2 52 26 52c-2.3 0-4.4-.3-6.4-.8-.8-.3-1.4-1-1.2-1.6 0-.7.8-1 1.6-1" fill="#003874"/></g></svg>