<?xml version="1.0" encoding="UTF-8"?>
<svg width="30px" height="21px" viewBox="0 0 30 21" version="1.1" xmlns="http://www.w3.org/2000/svg" xmlns:xlink="http://www.w3.org/1999/xlink">
    <!-- Generator: Sketch 43.2 (39069) - http://www.bohemiancoding.com/sketch -->
    <title>Page 1</title>
    <desc>Created with Sketch.</desc>
    <defs></defs>
    <g id="Page-1" stroke="none" stroke-width="1" fill="none" fill-rule="evenodd">
        <g id="12.0_我的订单_切换账号" transform="translate(-593.000000, -1007.000000)" fill="#298CFD">
            <g id="Page-1" transform="translate(593.000000, 1007.000000)">
                <path d="M29.1504,4.0713 L29.1504,4.0713 L12.8454,20.3763 C12.4614,20.7603 11.9294,21.0003 11.3414,21.0003 C10.7554,21.0003 10.2224,20.7603 9.8384,20.3763 L0.6224,11.1613 C0.2384,10.7753 0.0004,10.2433 0.0004,9.6563 C0.0004,8.4813 0.9524,7.5303 2.1254,7.5303 C2.7134,7.5303 3.2454,7.7673 3.6304,8.1523 L11.3414,15.8643 L26.1424,1.0623 C26.5274,0.6783 27.0594,0.4423 27.6464,0.4423 C28.8204,0.4423 29.7724,1.3923 29.7724,2.5673 C29.7724,3.1553 29.5354,3.6863 29.1504,4.0713" id="Fill-1"></path>
            </g>
        </g>
    </g>
</svg>