<?xml version="1.0" encoding="UTF-8"?>
<svg width="64px" height="64px" viewBox="0 0 64 64" version="1.1" xmlns="http://www.w3.org/2000/svg" xmlns:xlink="http://www.w3.org/1999/xlink">
    <!-- Generator: Sketch 49.1 (51147) - http://www.bohemiancoding.com/sketch -->
    <title>jjdt</title>
    <desc>Created with Sketch.</desc>
    <defs>
        <linearGradient x1="0%" y1="-4.54181609%" x2="65.8747439%" y2="60.0794057%" id="linearGradient-1">
            <stop stop-color="#3CC5FF" offset="0%"></stop>
            <stop stop-color="#FFFFFF" stop-opacity="0" offset="100%"></stop>
        </linearGradient>
    </defs>
    <g id="Page-1" stroke="none" stroke-width="1" fill="none" fill-rule="evenodd">
        <g id="0.0_首页改版_v1" transform="translate(-244.000000, -352.000000)">
            <g id="jjdt" transform="translate(245.000000, 353.000000)">
                <circle id="Oval-7" fill="url(#linearGradient-1)" cx="30.5" cy="30.5" r="30.5"></circle>
                <g id="Group-14" transform="translate(1.000000, 1.000000)">
                    <g id="Group-11" transform="translate(28.000000, 18.000000)" fill="#3095F9">
                        <path d="M13.1707317,12.4444444 L3.65853659,12.4444444 L3.65853659,1.77777778 C3.65853659,0.796444444 2.83902439,0 1.82926829,0 C0.819512195,0 0,0.796444444 0,1.77777778 L0,14.2222222 C0,15.2035556 0.819512195,16 1.82926829,16 L13.1707317,16 C14.1804878,16 15,15.2035556 15,14.2222222 C15,13.2408889 14.1804878,12.4444444 13.1707317,12.4444444 Z" id="Shape"></path>
                    </g>
                    <path d="M56.8086104,43.4792083 C58.8502643,39.4265523 60,34.8475437 60,30 C60,13.4314575 46.5685425,0 30,0 C13.4314575,0 0,13.4314575 0,30 C0,46.5685425 13.4314575,60 30,60" id="Oval-6" stroke="#3095F9" stroke-width="4" stroke-linecap="round"></path>
                    <path d="M52,30.5 C52,18.6258779 42.3741221,9 30.5,9 C18.6258779,9 9,18.6258779 9,30.5 C9,42.3741221 18.6258779,52 30.5,52 C33.5898652,52 36.5274937,51.3481969 39.1828891,50.1745871" id="Oval-6" stroke="#3095F9" stroke-width="4" stroke-linecap="round" transform="translate(30.500000, 30.500000) rotate(-331.000000) translate(-30.500000, -30.500000) "></path>
                    <path d="M51.1444812,60.6764577 C48.242082,60.6764577 45.8801538,58.3145294 45.8801538,55.4121302 L45.8801538,49.1195041 L49.9021,53.1414503 C50.246036,53.4853863 50.6952586,53.6573544 51.1444812,53.6573544 C51.5937039,53.6573544 52.0429265,53.4853863 52.3868625,53.1449598 C53.0712251,52.4605972 53.0712251,51.3480694 52.3868625,50.6637068 L45.3677592,43.6446035 C45.2063198,43.4831641 45.009785,43.3533107 44.7957023,43.2620624 C44.367537,43.0830752 43.8832189,43.0830752 43.4550536,43.2620624 C43.2409709,43.3533107 43.044436,43.4831641 42.8829967,43.6446035 L35.8674029,50.6601972 C35.1830403,51.3445598 35.1830403,52.4570877 35.8674029,53.1414503 C36.5517655,53.8258128 37.6607838,53.8293224 38.3486559,53.1449598 L42.3706021,49.1195041 L42.3706021,55.4121302 C42.3706021,60.2482924 46.3048095,64.1860093 51.1444812,64.1860093 C52.1131175,64.1860093 52.8992571,63.3998697 52.8992571,62.4312335 C52.8992571,61.4625972 52.1131175,60.6764577 51.1444812,60.6764577 Z" id="Shape" fill="#F5A623" transform="translate(44.127133, 53.656916) rotate(-35.000000) translate(-44.127133, -53.656916) "></path>
                </g>
            </g>
        </g>
    </g>
</svg>